<svg xmlns="http://www.w3.org/2000/svg" viewBox="0 0 16 16" role="img" aria-label="Piglin">
  <!-- Orelhas de porco -->
  <rect fill="#FFA5A5" x="3" y="4" width="1" height="2"/>
  <rect fill="#FFA5A5" x="12" y="4" width="1" height="2"/>
  <!-- Cabeça -->
  <rect fill="#FFB6C1" x="4" y="3" width="8" height="5"/>
  <!-- Olhos -->
  <rect fill="#8B4513" x="5" y="4" width="2" height="2"/>
  <rect fill="#8B4513" x="9" y="4" width="2" height="2"/>
  <!-- Focinho -->
  <rect fill="#FFA07A" x="6" y="6" width="4" height="2"/>
  <rect fill="#8B4513" x="7" y="7" width="1" height="1"/>
  <rect fill="#8B4513" x="8" y="7" width="1" height="1"/>
  <!-- Corpo (armadura de ouro) -->
  <rect fill="#FFD700" x="5" y="8" width="6" height="5"/>
  <!-- Braços -->
  <rect fill="#FFB6C1" x="3" y="9" width="2" height="3"/>
  <rect fill="#FFB6C1" x="11" y="9" width="2" height="3"/>
  <!-- Espada de ouro -->
  <rect fill="#8B4513" x="12" y="8" width="1" height="3"/>
  <rect fill="#FFD700" x="12" y="7" width="2" height="1"/>
  <!-- Pernas -->
  <rect fill="#FFB6C1" x="5" y="13" width="2" height="2"/>
  <rect fill="#FFB6C1" x="9" y="13" width="2" height="2"/>
</svg>
