<svg xmlns="http://www.w3.org/2000/svg" viewBox="0 0 16 16" role="img" aria-label="Warden">
  <!-- Chifres massivos -->
  <rect fill="#0A3A3A" x="3" y="1" width="2" height="3"/>
  <rect fill="#0A3A3A" x="11" y="1" width="2" height="3"/>
  <!-- Cabeça enorme -->
  <rect fill="#0D4D4D" x="4" y="2" width="8" height="5"/>
  <!-- Sem olhos (é cego) - apenas sensor -->
  <rect fill="#00FFFF" x="6" y="4" width="4" height="2"/>
  <rect fill="#00CED1" x="7" y="5" width="2" height="1"/>
  <!-- Boca/mandíbula -->
  <rect fill="#0A3A3A" x="5" y="6" width="6" height="1"/>
  <!-- Sensor Sculk no peito -->
  <rect fill="#00FFFF" x="7" y="8" width="2" height="3"/>
  <rect fill="#20B2AA" x="7" y="9" width="2" height="1"/>
  <!-- Corpo massivo -->
  <rect fill="#0D4D4D" x="4" y="7" width="8" height="6"/>
  <rect fill="#0A3A3A" x="5" y="8" width="6" height="4"/>
  <!-- Braços enormes -->
  <rect fill="#0D4D4D" x="1" y="8" width="3" height="5"/>
  <rect fill="#0D4D4D" x="12" y="8" width="3" height="5"/>
  <!-- Garras -->
  <rect fill="#00FFFF" x="1" y="13" width="2" height="1"/>
  <rect fill="#00FFFF" x="13" y="13" width="2" height="1"/>
  <!-- Pernas -->
  <rect fill="#0D4D4D" x="5" y="13" width="2" height="2"/>
  <rect fill="#0D4D4D" x="9" y="13" width="2" height="2"/>
</svg>
